####
#
# OBJ File Generated by Meshlab
#
####
# Object simple-13.obj
#
# Vertices: 154
# Faces: 304
#
####
vn 0.000996 0.000074 -4.608743
v 0.000000 -100.000000 -13.546164
vn 0.120483 0.111159 -5.557865
v -2.159526 -100.000000 -14.843734
vn 0.898947 -0.232913 -5.809146
v -2.142541 -99.701935 -14.846195
vn 1.037009 -0.460616 -5.836984
v -2.072992 -99.326042 -14.856066
vn 0.959381 -0.674186 -5.844047
v -2.007257 -99.111610 -14.865090
vn 0.800143 -1.022859 -5.844776
v -1.777373 -98.631454 -14.894326
vn 0.676241 -1.177063 -5.852170
v -1.433821 -98.195267 -14.931314
vn 0.901252 -0.873785 -5.837764
v -1.809422 -98.685120 -14.890467
vn 0.581446 -1.301724 -5.847723
v -1.361359 -98.126312 -14.938096
vn 0.433705 -1.379799 -5.864384
v -1.027826 -97.874786 -14.964745
vn 0.318898 -1.474839 -5.858439
v -0.738638 -97.727905 -14.981803
vn 0.184521 -1.501295 -5.869432
v -0.542183 -97.659355 -14.990198
vn 0.058923 -1.546495 -5.862589
v -0.020608 -97.580521 -14.999986
vn -0.044731 -1.554832 -5.859652
v 0.000069 -97.580406 -15.000000
vn -0.163384 -1.502068 -5.870962
v 0.457825 -97.636749 -14.993011
vn -0.300369 -1.479854 -5.858757
v 0.738539 -97.727867 -14.981808
vn -0.413419 -1.387623 -5.864810
v 0.955819 -97.832596 -14.969516
vn -0.671153 -1.193223 -5.849521
v 1.410268 -98.172180 -14.933558
vn -0.782512 -1.039735 -5.847613
v 1.746778 -98.582863 -14.897945
vn -0.562314 -1.303889 -5.849867
v 1.361354 -98.126312 -14.938096
vn -0.889501 -0.877002 -5.841762
v 1.809338 -98.684975 -14.890476
vn -0.966120 -0.671130 -5.844685
v 2.011647 -99.124062 -14.864497
vn -1.043922 -0.452810 -5.839348
v 2.072978 -99.325989 -14.856069
vn -1.079992 -0.217928 -5.840549
v 2.146839 -99.742500 -14.845574
vn -0.913424 0.014737 -5.804046
v 2.159526 -99.999947 -14.843734
vn -0.983247 0.241372 -5.825549
v 2.137657 -100.338303 -14.846899
vn -0.988315 0.465349 -5.830792
v 2.073002 -100.673920 -14.856065
vn -0.920335 0.677341 -5.839672
v 1.991845 -100.930557 -14.867164
vn -0.850815 0.876103 -5.837379
v 1.809321 -101.315048 -14.890479
vn -0.732046 1.037179 -5.848259
v 1.718233 -101.460327 -14.901264
vn -0.548021 1.323564 -5.850806
v 1.344071 -101.889267 -14.939661
vn -0.400859 1.404207 -5.864429
v 0.891821 -102.201668 -14.973465
vn -0.627425 1.202170 -5.845487
v 1.361332 -101.873711 -14.938098
vn -0.287480 1.487256 -5.858764
v 0.738414 -102.272186 -14.981813
vn -0.149978 1.502294 -5.871357
v 0.387383 -102.379189 -14.994997
vn -0.026399 1.543063 -5.862293
v 0.000227 -102.419594 -15.000000
vn 0.091132 1.522894 -5.867850
v -0.129900 -102.415024 -14.999437
vn 0.222565 1.501134 -5.863288
v -0.650256 -102.305801 -14.985899
vn 0.342232 1.460810 -5.858241
v -0.738594 -102.272110 -14.981805
vn 0.460326 1.361781 -5.863000
v -1.133734 -102.055786 -14.957093
vn 0.577373 1.250294 -5.847674
v -1.361366 -101.873680 -14.938095
vn 0.683284 1.099427 -5.851199
v -1.561788 -101.666443 -14.918472
vn 0.814184 0.952465 -5.836605
v -1.809488 -101.314766 -14.890458
vn 0.885322 0.775769 -5.840702
v -1.867234 -101.209816 -14.883327
vn 0.965974 0.560735 -5.833087
v -2.073094 -100.673561 -14.856052
vn 0.995540 0.344320 -5.829329
v -2.086363 -100.620102 -14.854195
vn 0.282849 -2.966921 -3.116485
v 1.437686 -125.000000 -14.930943
vn -0.282845 -2.966921 -3.116422
v -1.437686 -125.000000 -14.930943
vn -0.149803 1.507025 -5.871397
v 0.387383 97.620811 -14.994997
vn -0.287846 1.489481 -5.858794
v 0.738414 97.727814 -14.981813
vn -0.400793 1.404932 -5.864430
v 0.891821 97.798332 -14.973465
vn -0.547904 1.323572 -5.850938
v 1.344071 98.110733 -14.939661
vn 0.710136 1.120298 -5.854582
v -1.561788 98.333557 -14.918472
vn 0.090182 1.528377 -5.867882
v -0.129900 97.584976 -14.999437
vn -0.026178 1.550304 -5.862345
v 0.000227 97.580406 -15.000000
vn 0.457314 1.358467 -5.862740
v -1.133734 97.944214 -14.957093
vn 0.340872 1.459578 -5.858154
v -0.738594 97.727890 -14.981805
vn 0.221954 1.502560 -5.863275
v -0.650256 97.694199 -14.985899
vn 0.599744 1.263634 -5.850128
v -1.361366 98.126320 -14.938095
vn -0.282580 2.967344 -3.116492
v -1.437686 125.000000 -14.930943
vn 0.433783 -1.379357 -5.864387
v -1.027826 102.125214 -14.964745
vn 0.581467 -1.301708 -5.847726
v -1.361359 101.873688 -14.938096
vn 0.184492 -1.497526 -5.869397
v -0.542183 102.340645 -14.990198
vn 0.318643 -1.473177 -5.858417
v -0.738638 102.272095 -14.981803
vn 0.282658 2.967210 -3.116414
v 1.437686 125.000000 -14.930943
vn -0.045505 -1.548071 -5.859611
v 0.000069 102.419594 -15.000000
vn -0.164310 -1.499419 -5.870965
v 0.457825 102.363251 -14.993011
vn 0.059494 -1.539608 -5.862542
v -0.020608 102.419479 -14.999986
vn -0.416306 -1.390835 -5.865042
v 0.955819 102.167404 -14.969516
vn -0.301477 -1.480593 -5.858818
v 0.738539 102.272133 -14.981808
vn -0.643456 -1.177999 -5.846527
v 1.410268 101.827820 -14.933558
vn -0.566016 -1.308038 -5.850196
v 1.361354 101.873688 -14.938096
vn -0.839360 -2.955649 -3.013156
v -3.882286 -125.000000 -14.488888
vn -0.839656 2.956011 -3.012984
v -3.882286 125.000000 -14.488888
vn 0.920015 0.790556 -5.845338
v -1.867234 98.790184 -14.883327
vn 0.843379 0.970243 -5.840415
v -1.809488 98.685234 -14.890458
vn 1.065854 0.353423 -5.840211
v -2.086363 99.379898 -14.854195
vn 1.009972 0.572704 -5.839592
v -2.073094 99.326439 -14.856052
vn 0.884085 0.055464 -5.822369
v -2.159526 100.000000 -14.843734
vn 0.925662 -0.662432 -5.839243
v -2.007257 100.888390 -14.865090
vn 0.991706 -0.451479 -5.830082
v -2.072992 100.673958 -14.856066
vn 0.979425 -0.226771 -5.824574
v -2.142541 100.298065 -14.846195
vn 0.771845 -1.003803 -5.841463
v -1.777373 101.368546 -14.894326
vn 0.869701 -0.857799 -5.833508
v -1.809422 101.314880 -14.890467
vn 0.648635 -1.161103 -5.848999
v -1.433821 101.804733 -14.931314
vn 0.839598 2.955894 -3.013206
v 3.882286 125.000000 -14.488888
vn -0.754698 -1.020301 -5.844088
v 1.746778 101.417137 -14.897945
vn -0.927223 -0.658055 -5.839119
v 2.011647 100.875938 -14.864497
vn -0.858248 -0.861077 -5.837279
v 1.809338 101.315025 -14.890476
vn -0.920857 0.014662 -5.805586
v 2.159526 100.000053 -14.843734
vn -0.974888 -0.212053 -5.823399
v 2.146839 100.257500 -14.845574
vn -0.989848 -0.442353 -5.831158
v 2.072978 100.674011 -14.856069
vn 0.839470 -2.955640 -3.013527
v 3.882286 -125.000000 -14.488888
vn -1.059040 0.246906 -5.837967
v 2.137657 99.661697 -14.846899
vn -0.953534 0.689006 -5.844478
v 1.991845 99.069443 -14.867164
vn -1.032514 0.474640 -5.837507
v 2.073002 99.326080 -14.856065
vn -0.756295 1.055491 -5.851291
v 1.718233 98.539673 -14.901264
vn -0.878114 0.890445 -5.841070
v 1.809321 98.684952 -14.890479
vn -0.654510 1.218750 -5.848340
v 1.361332 98.126289 -14.938098
vn 1.408294 2.935893 -2.789678
v 6.759825 125.000000 -13.390473
vn 1.408295 -2.935893 -2.789678
v 6.759825 -125.000000 -13.390473
vn 1.948403 2.935893 -2.443220
v 9.352347 125.000000 -11.727472
vn 1.948403 -2.935893 -2.443219
v 9.352347 -125.000000 -11.727472
vn 2.406360 2.935893 -1.993748
v 11.550544 125.000000 -9.570003
vn 2.406360 -2.935893 -1.993747
v 11.550544 -125.000000 -9.570003
vn 2.762856 2.935894 -1.460213
v 13.261731 125.000000 -7.009029
vn 2.762857 -2.935893 -1.460212
v 13.261731 -125.000000 -7.009029
vn 3.002862 2.935893 -0.865110
v 14.413760 125.000000 -4.152533
vn 3.002862 -2.935893 -0.865109
v 14.413760 -125.000000 -4.152533
vn 3.116257 2.935893 -0.233531
v 14.958057 125.000000 -1.120951
vn 3.116257 -2.935893 -0.233530
v 14.958057 -125.000000 -1.120951
vn 3.098261 2.935894 0.407894
v 14.871673 125.000000 1.957893
vn 3.098256 -2.935892 0.407893
v 14.871673 -125.000000 1.957893
vn 2.949626 2.935893 1.032119
v 14.158250 125.000000 4.954186
vn 2.949631 -2.935893 1.032121
v 14.158250 -125.000000 4.954186
vn 2.676636 2.935893 1.612829
v 12.847868 125.000000 7.741594
vn 2.676631 -2.935894 1.612827
v 12.847868 -125.000000 7.741594
vn 2.290780 2.935893 2.125534
v 10.995778 125.000000 10.202591
vn 2.290783 -2.935893 2.125537
v 10.995778 -125.000000 10.202591
vn 1.808346 2.935894 2.548624
v 8.680069 125.000000 12.233413
vn 1.808345 -2.935894 2.548624
v 8.680069 -125.000000 12.233413
vn 1.249661 2.935893 2.864253
v 5.998380 125.000000 13.748434
vn 1.249660 -2.935893 2.864253
v 5.998380 -125.000000 13.748434
vn 0.638287 2.935893 3.059115
v 3.063780 125.000000 14.683775
vn 0.638286 -2.935893 3.059115
v 3.063780 -125.000000 14.683775
vn 0.000000 2.935893 3.124995
v 0.000000 125.000000 15.000000
vn -0.000000 -2.935893 3.124995
v 0.000000 -125.000000 15.000000
vn -0.638286 2.935894 3.059115
v -3.063780 125.000000 14.683775
vn -0.638287 -2.935893 3.059115
v -3.063780 -125.000000 14.683775
vn -1.249660 2.935893 2.864253
v -5.998380 125.000000 13.748434
vn -1.249661 -2.935893 2.864253
v -5.998380 -125.000000 13.748434
vn -1.808345 2.935894 2.548624
v -8.680069 125.000000 12.233413
vn -1.808346 -2.935894 2.548624
v -8.680069 -125.000000 12.233413
vn -2.290783 2.935893 2.125537
v -10.995778 125.000000 10.202591
vn -2.290780 -2.935893 2.125534
v -10.995778 -125.000000 10.202591
vn -2.676631 2.935894 1.612827
v -12.847868 125.000000 7.741594
vn -2.676636 -2.935894 1.612829
v -12.847868 -125.000000 7.741594
vn -2.949631 2.935893 1.032121
v -14.158250 125.000000 4.954186
vn -2.949626 -2.935893 1.032119
v -14.158250 -125.000000 4.954186
vn -3.098256 2.935894 0.407893
v -14.871673 125.000000 1.957893
vn -3.098260 -2.935894 0.407894
v -14.871673 -125.000000 1.957893
vn -3.116257 2.935893 -0.233530
v -14.958057 125.000000 -1.120951
vn -3.116257 -2.935893 -0.233531
v -14.958057 -125.000000 -1.120951
vn -3.002862 2.935893 -0.865109
v -14.413760 125.000000 -4.152533
vn -3.002862 -2.935893 -0.865110
v -14.413760 -125.000000 -4.152533
vn -2.762857 2.935893 -1.460212
v -13.261731 125.000000 -7.009029
vn -2.762856 -2.935894 -1.460213
v -13.261731 -125.000000 -7.009029
vn -2.406360 2.935893 -1.993747
v -11.550544 125.000000 -9.570003
vn -2.406360 -2.935893 -1.993748
v -11.550544 -125.000000 -9.570003
vn -1.948403 2.935894 -2.443219
v -9.352347 125.000000 -11.727472
vn -1.948403 -2.935893 -2.443220
v -9.352347 -125.000000 -11.727472
vn -1.408295 2.935893 -2.789678
v -6.759825 125.000000 -13.390473
vn -1.408294 -2.935893 -2.789678
v -6.759825 -125.000000 -13.390473
vn 0.000996 0.000074 -4.608743
v 0.000000 100.000000 -13.546164
# 154 vertices, 0 vertices normals

f 1//1 2//2 3//3
f 1//1 4//4 5//5
f 1//1 6//6 7//7
f 1//1 8//8 6//6
f 1//1 9//9 10//10
f 1//1 11//11 12//12
f 12//12 13//13 1//1
f 1//1 14//14 15//15
f 1//1 16//16 17//17
f 1//1 18//18 19//19
f 1//1 20//20 18//18
f 1//1 21//21 22//22
f 1//1 23//23 24//24
f 1//1 25//25 26//26
f 1//1 27//27 28//28
f 1//1 29//29 30//30
f 1//1 31//31 32//32
f 1//1 33//33 31//31
f 1//1 34//34 35//35
f 1//1 36//36 37//37
f 37//37 38//38 1//1
f 1//1 39//39 40//40
f 1//1 41//41 42//42
f 1//1 43//43 44//44
f 1//1 45//45 46//46
f 46//46 2//2 1//1
f 44//44 45//45 1//1
f 42//42 43//43 1//1
f 40//40 41//41 1//1
f 38//38 39//39 1//1
f 35//35 36//36 1//1
f 32//32 34//34 1//1
f 30//30 33//33 1//1
f 28//28 29//29 1//1
f 26//26 27//27 1//1
f 24//24 25//25 1//1
f 22//22 23//23 1//1
f 19//19 21//21 1//1
f 17//17 20//20 1//1
f 15//15 16//16 1//1
f 13//13 14//14 1//1
f 10//10 11//11 1//1
f 7//7 9//9 1//1
f 5//5 8//8 1//1
f 3//3 4//4 1//1
f 47//47 32//32 31//31
f 47//47 35//35 34//34
f 34//34 32//32 47//47
f 48//48 37//37 36//36
f 36//36 47//47 48//48
f 48//48 40//40 39//39
f 39//39 38//38 48//48
f 38//38 37//37 48//48
f 48//48 41//41 40//40
f 36//36 35//35 47//47
f 18//18 49//49 50//50
f 50//50 51//51 18//18
f 51//51 52//52 18//18
f 53//53 10//10 9//9
f 53//53 12//12 11//11
f 11//11 10//10 53//53
f 9//9 7//7 53//53
f 53//53 15//15 14//14
f 14//14 13//13 53//53
f 13//13 12//12 53//53
f 53//53 17//17 16//16
f 18//18 54//54 55//55
f 18//18 56//56 57//57
f 57//57 58//58 18//18
f 58//58 54//54 18//18
f 20//20 53//53 59//59
f 59//59 18//18 20//20
f 20//20 17//17 53//53
f 59//59 56//56 18//18
f 55//55 49//49 18//18
f 16//16 15//15 53//53
f 60//60 61//61 62//62
f 60//60 63//63 64//64
f 64//64 61//61 60//60
f 60//60 65//65 66//66
f 65//65 67//67 66//66
f 66//66 68//68 60//60
f 68//68 63//63 60//60
f 65//65 69//69 70//70
f 65//65 71//71 72//72
f 72//72 69//69 65//65
f 70//70 67//67 65//65
f 73//73 42//42 41//41
f 73//73 44//44 43//43
f 73//73 2//2 46//46
f 46//46 45//45 73//73
f 45//45 44//44 73//73
f 43//43 42//42 73//73
f 74//74 4//4 3//3
f 74//74 5//5 4//4
f 3//3 73//73 74//74
f 3//3 2//2 73//73
f 75//75 6//6 8//8
f 6//6 75//75 76//76
f 76//76 7//7 6//6
f 76//76 53//53 7//7
f 5//5 77//77 78//78
f 5//5 74//74 79//79
f 79//79 77//77 5//5
f 78//78 75//75 5//5
f 8//8 5//5 75//75
f 74//74 80//80 81//81
f 81//81 82//82 74//74
f 74//74 83//83 84//84
f 74//74 60//60 85//85
f 85//85 83//83 74//74
f 84//84 80//80 74//74
f 82//82 79//79 74//74
f 86//86 87//87 71//71
f 86//86 88//88 89//89
f 89//89 87//87 86//86
f 86//86 90//90 91//91
f 91//91 92//92 86//86
f 92//92 88//88 86//86
f 93//93 94//94 90//90
f 93//93 95//95 96//96
f 96//96 94//94 93//93
f 90//90 86//86 93//93
f 93//93 97//97 98//98
f 98//98 95//95 93//93
f 99//99 22//22 21//21
f 21//21 52//52 99//99
f 21//21 19//19 52//52
f 99//99 97//97 22//22
f 19//19 18//18 52//52
f 97//97 24//24 23//23
f 93//93 26//26 25//25
f 25//25 97//97 93//93
f 25//25 24//24 97//97
f 93//93 28//28 27//27
f 27//27 26//26 93//93
f 93//93 30//30 29//29
f 29//29 28//28 93//93
f 23//23 22//22 97//97
f 93//93 47//47 33//33
f 33//33 30//30 93//93
f 71//71 65//65 86//86
f 41//41 48//48 73//73
f 62//62 85//85 60//60
f 31//31 33//33 47//47
f 93//93 86//86 100//100
f 101//101 100//100 102//102
f 103//103 102//102 104//104
f 105//105 104//104 106//106
f 107//107 106//106 108//108
f 109//109 108//108 110//110
f 111//111 110//110 112//112
f 113//113 112//112 114//114
f 115//115 114//114 116//116
f 117//117 116//116 118//118
f 119//119 118//118 120//120
f 121//121 120//120 122//122
f 123//123 122//122 124//124
f 125//125 124//124 126//126
f 127//127 126//126 128//128
f 129//129 128//128 130//130
f 131//131 130//130 132//132
f 133//133 132//132 134//134
f 135//135 134//134 136//136
f 137//137 136//136 138//138
f 139//139 138//138 140//140
f 141//141 140//140 142//142
f 143//143 142//142 144//144
f 145//145 144//144 146//146
f 147//147 146//146 148//148
f 149//149 148//148 150//150
f 151//151 150//150 152//152
f 153//153 152//152 74//74
f 74//74 73//73 153//153
f 152//152 153//153 151//151
f 150//150 151//151 149//149
f 148//148 149//149 147//147
f 146//146 147//147 145//145
f 144//144 145//145 143//143
f 142//142 143//143 141//141
f 140//140 141//141 139//139
f 138//138 139//139 137//137
f 136//136 137//137 135//135
f 134//134 135//135 133//133
f 132//132 133//133 131//131
f 130//130 131//131 129//129
f 128//128 129//129 127//127
f 126//126 127//127 125//125
f 124//124 125//125 123//123
f 122//122 123//123 121//121
f 120//120 121//121 119//119
f 118//118 119//119 117//117
f 116//116 117//117 115//115
f 114//114 115//115 113//113
f 112//112 113//113 111//111
f 110//110 111//111 109//109
f 108//108 109//109 107//107
f 106//106 107//107 105//105
f 104//104 105//105 103//103
f 102//102 103//103 101//101
f 100//100 101//101 93//93
f 117//117 111//111 113//113
f 141//141 143//143 145//145
f 147//147 137//137 139//139
f 93//93 121//121 123//123
f 117//117 109//109 111//111
f 137//137 147//147 149//149
f 139//139 141//141 147//147
f 93//93 119//119 121//121
f 117//117 107//107 109//109
f 117//117 93//93 101//101
f 137//137 151//151 153//153
f 145//145 147//147 141//141
f 123//123 125//125 93//93
f 117//117 105//105 107//107
f 101//101 103//103 117//117
f 149//149 151//151 137//137
f 73//73 133//133 135//135
f 93//93 117//117 119//119
f 103//103 105//105 117//117
f 135//135 137//137 73//73
f 73//73 129//129 131//131
f 113//113 115//115 117//117
f 131//131 133//133 73//73
f 127//127 47//47 93//93
f 73//73 127//127 129//129
f 127//127 48//48 47//47
f 153//153 73//73 137//137
f 73//73 48//48 127//127
f 125//125 127//127 93//93
f 86//86 104//104 102//102
f 144//144 140//140 138//138
f 86//86 106//106 104//104
f 144//144 142//142 140//140
f 86//86 108//108 106//106
f 86//86 122//122 120//120
f 150//150 132//132 130//130
f 150//150 136//136 134//134
f 136//136 146//146 144//144
f 136//136 150//150 148//148
f 86//86 110//110 108//108
f 86//86 124//124 122//122
f 134//134 132//132 150//150
f 148//148 146//146 136//136
f 86//86 112//112 110//110
f 86//86 116//116 114//114
f 120//120 118//118 86//86
f 138//138 136//136 144//144
f 128//128 74//74 152//152
f 114//114 112//112 86//86
f 86//86 126//126 124//124
f 152//152 150//150 128//128
f 118//118 116//116 86//86
f 130//130 128//128 150//150
f 102//102 100//100 86//86
f 126//126 60//60 74//74
f 86//86 65//65 126//126
f 65//65 60//60 126//126
f 128//128 126//126 74//74
f 154//154 79//79 82//82
f 154//154 81//81 80//80
f 154//154 83//83 85//85
f 154//154 84//84 83//83
f 154//154 62//62 61//61
f 154//154 64//64 63//63
f 63//63 68//68 154//154
f 154//154 66//66 67//67
f 154//154 70//70 69//69
f 154//154 71//71 87//87
f 154//154 72//72 71//71
f 154//154 89//89 88//88
f 154//154 92//92 91//91
f 154//154 90//90 94//94
f 154//154 96//96 95//95
f 154//154 98//98 97//97
f 154//154 52//52 51//51
f 154//154 99//99 52//52
f 154//154 50//50 49//49
f 154//154 55//55 54//54
f 54//54 58//58 154//154
f 154//154 57//57 56//56
f 154//154 59//59 53//53
f 154//154 76//76 75//75
f 154//154 78//78 77//77
f 77//77 79//79 154//154
f 75//75 78//78 154//154
f 53//53 76//76 154//154
f 56//56 59//59 154//154
f 58//58 57//57 154//154
f 49//49 55//55 154//154
f 51//51 50//50 154//154
f 97//97 99//99 154//154
f 95//95 98//98 154//154
f 94//94 96//96 154//154
f 91//91 90//90 154//154
f 88//88 92//92 154//154
f 87//87 89//89 154//154
f 69//69 72//72 154//154
f 67//67 70//70 154//154
f 68//68 66//66 154//154
f 61//61 64//64 154//154
f 85//85 62//62 154//154
f 80//80 84//84 154//154
f 82//82 81//81 154//154
# 304 faces, 0 coords texture

# End of File
