####
#
# OBJ File Generated by Meshlab
#
####
# Object simple-23.obj
#
# Vertices: 157
# Faces: 310
#
####
vn -1.226942 2.827661 4.812410
v 244.929001 496.159210 -7.853402
vn -0.805594 2.297531 -0.350883
v 244.657211 502.867401 -10.034652
vn -3.799396 1.573063 2.463787
v 207.083862 494.639771 -7.810752
vn -0.648693 0.919965 -0.007353
v 206.812088 501.348022 -9.992002
vn -3.291925 0.899332 -2.959176
v 207.021515 496.376465 -1.275813
vn -1.607248 1.989503 -0.308016
v 256.073303 497.936035 -1.498881
vn -3.304604 1.213645 -2.830234
v 207.037750 495.967346 -1.443619
vn -1.624496 2.291705 -0.161948
v 255.533188 497.525177 -1.709396
vn -3.316395 1.512337 -2.667970
v 207.053116 495.578796 -1.654760
vn -1.639928 2.578028 0.016239
v 254.938217 497.137268 -1.960702
vn -3.327389 1.791595 -2.474246
v 207.067413 495.215363 -1.906754
vn -1.653489 2.844274 0.224997
v 254.295410 496.776917 -2.249848
vn -3.337414 2.048329 -2.251551
v 207.080505 494.881317 -2.196638
vn -1.665173 3.086840 0.461447
v 253.612244 496.448273 -2.573433
vn -3.346527 2.279464 -2.002144
v 207.092209 494.580566 -2.521007
vn -1.675170 3.302900 0.723363
v 252.896851 496.155273 -2.927657
vn -3.354217 2.482275 -1.729312
v 207.102402 494.316711 -2.876048
vn -1.683285 3.489542 1.007202
v 252.157562 495.901306 -3.308355
vn -3.360842 2.654390 -1.436235
v 207.110977 494.092773 -3.257589
vn -1.689686 3.644764 1.310311
v 251.401428 495.688965 -3.711962
vn -3.366162 2.793753 -1.125934
v 207.117798 493.911407 -3.661145
vn -1.694254 3.766320 1.628618
v 250.642334 495.522034 -4.131020
vn -3.369972 2.898769 -0.802431
v 207.122803 493.774780 -4.081975
vn -1.696841 3.852649 1.957705
v 249.884186 495.401154 -4.563319
vn -3.372334 2.968221 -0.469597
v 207.125946 493.684479 -4.515132
vn -1.697480 3.902943 2.295025
v 249.137573 495.328186 -5.002870
vn -3.373303 3.001133 -0.131137
v 207.127167 493.641541 -4.955526
vn -1.696031 3.916407 2.636159
v 248.411270 495.303986 -5.444508
vn -3.372761 2.997315 0.208823
v 207.126465 493.646484 -5.397982
vn -1.692454 3.892711 2.977542
v 247.713821 495.328888 -5.883041
vn -3.370779 2.956778 0.546440
v 207.123856 493.699249 -5.837298
vn -1.686621 3.832020 3.314587
v 247.053406 495.402557 -6.313317
vn -3.367412 2.879847 0.877876
v 207.119354 493.799225 -6.268313
vn -1.678189 3.734710 3.643571
v 246.437790 495.524078 -6.730279
vn -3.362304 2.767711 1.198804
v 207.113022 493.945282 -6.685962
vn -1.667212 3.601360 3.961681
v 245.874222 495.692139 -7.129026
vn -3.356298 2.621480 1.505718
v 207.104935 494.135590 -7.085335
vn -1.667112 3.437424 4.257985
v 245.369308 495.904663 -7.504873
vn -3.348462 2.442891 1.794923
v 207.095169 494.368011 -7.461740
vn -1.671377 3.295621 4.465407
v 245.140747 496.026855 -7.682816
vn -0.006582 -0.187831 -6.030187
v 256.964325 498.807098 -1.209614
vn -1.624582 1.537663 -0.465050
v 256.867828 498.695648 -1.235790
vn -3.734386 -0.200595 -2.999211
v 207.004593 496.801331 -1.153312
vn -1.618429 1.619282 -0.439476
v 256.766937 498.584747 -1.264867
vn -1.605326 1.749793 -0.398634
v 256.552216 498.365021 -1.331632
vn -0.996686 3.506448 2.836035
v 248.118530 503.064880 -7.954634
vn -1.672799 1.714839 -0.412187
v 256.823334 498.648285 -1.249080
vn -2.104285 2.119359 5.351857
v 248.367661 496.915741 -5.955177
vn -1.723802 3.208810 4.574200
v 248.518906 496.821198 -5.833330
vn -1.753823 3.742904 3.612434
v 249.885101 496.375275 -4.855116
vn -1.752486 3.615724 3.925160
v 249.445358 496.462097 -5.152946
vn -1.751088 3.456416 4.221334
v 249.042831 496.582123 -5.437766
vn -1.738253 3.314901 4.435060
v 248.682175 496.733948 -5.706228
vn -1.693199 1.951891 -0.328997
v 256.669983 498.491333 -1.296770
vn -1.708086 2.253372 -0.181442
v 256.327881 498.184906 -1.416233
vn -1.713938 2.547489 -0.002415
v 255.942078 497.891449 -1.566601
vn -1.720525 2.819797 0.206676
v 255.517090 497.614380 -1.746106
vn -1.727245 3.067301 0.443439
v 255.057938 497.356964 -1.952638
vn -1.753716 3.898680 2.274289
v 251.907074 496.374268 -3.605118
vn -1.755010 3.914438 2.614210
v 251.373795 496.322144 -3.919083
vn -1.755270 3.893271 2.952758
v 250.854996 496.304901 -4.234538
vn -1.754919 3.835892 3.287026
v 250.356827 496.322662 -4.547777
vn -1.733481 3.286899 0.705552
v 254.569977 497.122223 -2.183771
vn -1.739216 3.476715 0.989371
v 254.058990 496.912933 -2.436787
vn -1.744259 3.634408 1.292393
v 253.530914 496.731537 -2.708714
vn -1.748322 3.757936 1.609437
v 252.990845 496.579895 -2.997005
vn -1.751532 3.846458 1.938269
v 252.448624 496.460602 -3.296333
vn 2.698452 1.604556 2.694143
v 306.854370 502.649536 2.342764
vn -2.812351 1.383422 2.700429
v 206.934937 498.637909 2.455369
vn 2.607095 0.253983 3.025653
v 306.878723 502.048065 2.538335
vn -2.612245 0.044483 3.031269
v 206.959290 498.036469 2.650940
vn 1.811268 2.104417 -1.548095
v 306.731537 505.359589 -10.104607
vn 2.997943 0.877181 -3.048079
v 306.758331 504.686127 -10.310993
vn -3.065496 0.633636 -3.041186
v 206.838898 500.674500 -10.198388
vn 3.011155 0.546514 -3.111441
v 306.785980 503.994415 -10.443917
vn -3.052261 0.303100 -3.104694
v 206.866516 499.982819 -10.331312
vn 3.024596 0.211023 -3.139208
v 306.814087 503.292450 -10.501844
vn -3.038840 -0.032375 -3.132414
v 206.894638 499.280853 -10.389238
vn 3.038106 -0.125533 -3.130867
v 306.842346 502.588318 -10.484108
vn -3.025313 -0.368804 -3.123776
v 206.922913 498.576721 -10.371503
vn 3.051568 -0.459070 -3.086194
v 306.870483 501.890198 -10.390910
vn -3.011873 -0.702519 -3.079370
v 206.951050 497.878571 -10.278305
vn 3.064769 -0.786049 -3.006155
v 306.898132 501.206055 -10.223330
vn -2.998648 -1.029493 -2.999342
v 206.978714 497.194427 -10.110723
vn 3.077627 -1.102460 -2.891473
v 306.924988 500.543823 -9.983294
vn -2.985817 -1.345919 -2.884547
v 207.005569 496.532196 -9.870689
vn 3.089889 -1.404693 -2.743304
v 306.950775 499.911102 -9.673575
vn -2.973508 -1.648356 -2.736608
v 207.031326 495.899506 -9.560970
vn 3.101557 -1.689721 -2.563842
v 306.975098 499.315247 -9.297744
vn -2.961878 -1.933126 -2.557020
v 207.055679 495.303650 -9.185138
vn 3.112371 -1.953430 -2.354645
v 306.997772 498.763092 -8.860131
vn -2.951070 -2.196913 -2.347893
v 207.078339 494.751495 -8.747526
vn 3.122262 -2.193426 -2.118360
v 307.018494 498.261017 -8.365786
vn -2.941101 -2.436838 -2.111587
v 207.099045 494.249390 -8.253181
vn 3.131209 -2.406656 -1.857832
v 307.037018 497.814819 -7.820408
vn -2.932331 -2.650087 -1.850879
v 207.117569 493.803192 -7.707803
vn 3.138752 -2.590699 -1.575713
v 307.053162 497.429565 -7.230286
vn -2.924532 -2.834221 -1.568881
v 207.133713 493.417969 -7.117680
vn 3.145378 -2.743627 -1.275544
v 307.066681 497.109833 -6.602224
vn -2.918166 -2.987061 -1.268766
v 207.147263 493.098236 -6.489619
vn 3.150486 -2.863295 -0.960846
v 307.077484 496.859192 -5.943466
vn -2.912955 -3.106781 -0.954065
v 207.158066 492.847595 -5.830860
vn 3.154176 -2.948721 -0.634929
v 307.085419 496.680573 -5.261607
vn -2.909054 -3.192118 -0.628047
v 207.166000 492.668976 -5.149001
vn 3.156743 -2.998572 -0.301755
v 307.090424 496.576111 -4.564509
vn -2.906866 -3.242057 -0.294906
v 207.170975 492.564514 -4.451903
vn 3.157608 -3.012656 0.034665
v 307.092377 496.546875 -3.860212
vn -2.905843 -3.256006 0.041532
v 207.172943 492.535278 -3.747607
vn 3.157017 -2.990303 0.370870
v 307.091339 496.593262 -3.156836
vn -2.906329 -3.233850 0.377659
v 207.171875 492.581665 -3.044231
vn 3.155159 -2.932363 0.702829
v 307.087219 496.714783 -2.462493
vn -2.908253 -3.175722 0.709583
v 207.167770 492.703156 -2.349888
vn 3.151744 -2.839047 1.026442
v 307.080139 496.909973 -1.785189
vn -2.911722 -3.082516 1.033296
v 207.160706 492.898376 -1.672583
vn 3.146951 -2.711623 1.338266
v 307.070160 497.176605 -1.132734
vn -2.916421 -2.955008 1.345061
v 207.150726 493.165009 -1.020128
vn 3.140912 -2.551564 1.634592
v 307.057404 497.511627 -0.512651
vn -2.922564 -2.794990 1.641414
v 207.137985 493.500031 -0.400046
vn 3.133556 -2.360619 1.911973
v 307.042023 497.911133 0.067908
vn -2.929916 -2.604065 1.918771
v 207.122589 493.899536 0.180514
vn 3.124982 -2.141144 2.167356
v 307.024170 498.370514 0.602250
vn -2.938390 -2.384537 2.174160
v 207.104752 494.358917 0.714856
vn 3.115405 -1.895491 2.397666
v 307.004089 498.884521 1.084213
vn -2.948023 -2.138805 2.404506
v 207.084656 494.872925 1.196819
vn 3.104818 -1.626472 2.600290
v 306.981995 499.447205 1.508240
vn -2.958594 -1.870013 2.607189
v 207.062561 495.435608 1.620845
vn 3.093463 -1.337476 2.772974
v 306.958099 500.052094 1.869440
vn -2.969995 -1.580908 2.779717
v 207.038666 496.040466 1.982045
vn 3.081289 -1.031663 2.913535
v 306.932739 500.692139 2.163649
vn -2.982135 -1.275041 2.920359
v 207.013306 496.680542 2.276254
vn 3.068616 -0.712423 3.020474
v 306.906189 501.360046 2.387474
vn -2.994800 -0.955854 3.027302
v 206.986740 497.348419 2.500080
vn 2.164937 2.669449 1.200796
v 306.734589 505.564392 -0.105046
vn -2.369266 2.487412 1.205915
v 206.815140 501.552765 0.007559
vn 1.774580 2.128462 1.447816
v 306.731537 505.418060 -8.020689
vn 3.666775 1.872855 2.455268
v 306.980682 499.268951 -6.021232
vn 3.731876 0.099285 -3.007525
v 306.924042 500.812897 -1.265917
vn 1.210401 1.134899 -1.495307
v 306.731537 505.564331 -2.810894
vn 3.132308 3.028615 1.191406
v 307.001465 498.772888 -5.217810
vn 3.124993 3.159512 -0.809777
v 307.008484 498.651093 -3.357820
vn 3.128813 3.054390 -1.133142
v 307.004913 498.748688 -3.057227
vn 3.133938 2.915312 -1.443368
v 307.000000 498.878235 -2.768972
vn 3.140585 2.742977 -1.736676
v 306.993896 499.038177 -2.496443
vn 3.148472 2.540112 -2.009374
v 306.986633 499.226654 -2.242842
vn 3.138828 2.882138 1.498518
v 306.995697 498.908813 -5.503077
vn 3.145873 2.703531 1.787826
v 306.988739 499.074860 -5.771937
vn 3.127532 3.140538 0.870521
v 307.006012 498.668579 -4.919489
vn 3.124198 3.217636 0.539224
v 307.009216 498.597137 -4.611621
vn 3.122162 3.257979 0.201440
v 307.011108 498.559448 -4.297824
vn 3.121462 3.262118 -0.138521
v 307.011566 498.555939 -3.981784
vn 3.122408 3.228900 -0.476990
v 307.010712 498.586609 -3.667217
vn 3.202750 1.159781 -2.966475
v 306.936127 500.509430 -1.353418
vn 3.190318 1.474404 -2.837705
v 306.947693 500.217194 -1.473280
vn 3.178479 1.773158 -2.675166
v 306.958679 499.939667 -1.624095
vn 3.167429 2.052325 -2.481575
v 306.968903 499.680084 -1.804090
vn 3.157426 2.309234 -2.258858
v 306.978241 499.441467 -2.011150
vn -1.300846 1.034071 -1.492472
v 206.812088 501.552704 -2.698288
# 157 vertices, 0 vertices normals

f 1//1 2//2 3//3
f 2//2 4//4 3//3
f 5//5 6//6 7//7
f 6//6 8//8 7//7
f 7//7 8//8 9//9
f 8//8 10//10 9//9
f 9//9 10//10 11//11
f 10//10 12//12 11//11
f 11//11 12//12 13//13
f 12//12 14//14 13//13
f 13//13 14//14 15//15
f 14//14 16//16 15//15
f 15//15 16//16 17//17
f 16//16 18//18 17//17
f 17//17 18//18 19//19
f 18//18 20//20 19//19
f 19//19 20//20 21//21
f 20//20 22//22 21//21
f 21//21 22//22 23//23
f 22//22 24//24 23//23
f 23//23 24//24 25//25
f 24//24 26//26 25//25
f 25//25 26//26 27//27
f 26//26 28//28 27//27
f 27//27 28//28 29//29
f 28//28 30//30 29//29
f 29//29 30//30 31//31
f 30//30 32//32 31//31
f 31//31 32//32 33//33
f 32//32 34//34 33//33
f 33//33 34//34 35//35
f 34//34 36//36 35//35
f 35//35 36//36 37//37
f 36//36 38//38 37//37
f 37//37 38//38 39//39
f 38//38 40//40 39//39
f 39//39 40//40 3//3
f 40//40 1//1 3//3
f 41//41 42//42 43//43
f 42//42 44//44 43//43
f 43//43 44//44 5//5
f 44//44 45//45 5//5
f 5//5 45//45 6//6
f 2//2 1//1 46//46
f 1//1 40//40 46//46
f 42//42 41//41 47//47
f 40//40 38//38 46//46
f 38//38 36//36 46//46
f 46//46 36//36 48//48
f 30//30 49//49 32//32
f 49//49 48//48 32//32
f 32//32 48//48 34//34
f 48//48 36//36 34//34
f 24//24 50//50 26//26
f 50//50 51//51 26//26
f 26//26 51//51 28//28
f 51//51 52//52 28//28
f 28//28 52//52 30//30
f 52//52 53//53 30//30
f 30//30 53//53 49//49
f 42//42 47//47 44//44
f 47//47 54//54 44//44
f 44//44 54//54 45//45
f 54//54 55//55 45//45
f 45//45 55//55 6//6
f 55//55 56//56 6//6
f 6//6 56//56 8//8
f 56//56 57//57 8//8
f 8//8 57//57 10//10
f 57//57 58//58 10//10
f 10//10 58//58 12//12
f 18//18 59//59 20//20
f 59//59 60//60 20//20
f 20//20 60//60 22//22
f 60//60 61//61 22//22
f 22//22 61//61 24//24
f 61//61 62//62 24//24
f 24//24 62//62 50//50
f 58//58 63//63 12//12
f 63//63 64//64 12//12
f 12//12 64//64 14//14
f 64//64 65//65 14//14
f 14//14 65//65 16//16
f 65//65 66//66 16//16
f 16//16 66//66 18//18
f 66//66 67//67 18//18
f 18//18 67//67 59//59
f 68//68 69//69 70//70
f 69//69 71//71 70//70
f 2//2 72//72 73//73
f 74//74 4//4 2//2
f 2//2 73//73 74//74
f 73//73 75//75 74//74
f 74//74 75//75 76//76
f 75//75 77//77 76//76
f 76//76 77//77 78//78
f 77//77 79//79 78//78
f 78//78 79//79 80//80
f 79//79 81//81 80//80
f 80//80 81//81 82//82
f 81//81 83//83 82//82
f 82//82 83//83 84//84
f 83//83 85//85 84//84
f 84//84 85//85 86//86
f 85//85 87//87 86//86
f 86//86 87//87 88//88
f 87//87 89//89 88//88
f 88//88 89//89 90//90
f 89//89 91//91 90//90
f 90//90 91//91 92//92
f 91//91 93//93 92//92
f 92//92 93//93 94//94
f 93//93 95//95 94//94
f 94//94 95//95 96//96
f 95//95 97//97 96//96
f 96//96 97//97 98//98
f 97//97 99//99 98//98
f 98//98 99//99 100//100
f 99//99 101//101 100//100
f 100//100 101//101 102//102
f 101//101 103//103 102//102
f 102//102 103//103 104//104
f 103//103 105//105 104//104
f 104//104 105//105 106//106
f 105//105 107//107 106//106
f 106//106 107//107 108//108
f 107//107 109//109 108//108
f 108//108 109//109 110//110
f 109//109 111//111 110//110
f 110//110 111//111 112//112
f 111//111 113//113 112//112
f 112//112 113//113 114//114
f 113//113 115//115 114//114
f 114//114 115//115 116//116
f 115//115 117//117 116//116
f 116//116 117//117 118//118
f 117//117 119//119 118//118
f 118//118 119//119 120//120
f 119//119 121//121 120//120
f 120//120 121//121 122//122
f 121//121 123//123 122//122
f 122//122 123//123 124//124
f 123//123 125//125 124//124
f 124//124 125//125 126//126
f 125//125 127//127 126//126
f 126//126 127//127 128//128
f 127//127 129//129 128//128
f 128//128 129//129 130//130
f 129//129 131//131 130//130
f 130//130 131//131 132//132
f 131//131 70//70 132//132
f 132//132 70//70 71//71
f 133//133 134//134 68//68
f 134//134 69//69 68//68
f 73//73 72//72 135//135
f 93//93 91//91 136//136
f 137//137 138//138 131//131
f 70//70 131//131 68//68
f 131//131 138//138 68//68
f 68//68 138//138 133//133
f 79//79 77//77 136//136
f 91//91 89//89 136//136
f 89//89 87//87 136//136
f 136//136 87//87 85//85
f 136//136 77//77 135//135
f 77//77 75//75 135//135
f 135//135 75//75 73//73
f 103//103 101//101 139//139
f 85//85 83//83 136//136
f 83//83 81//81 136//136
f 136//136 81//81 79//79
f 109//109 140//140 111//111
f 140//140 141//141 111//111
f 111//111 141//141 113//113
f 141//141 142//142 113//113
f 113//113 142//142 115//115
f 142//142 143//143 115//115
f 115//115 143//143 117//117
f 143//143 144//144 117//117
f 117//117 144//144 119//119
f 139//139 101//101 145//145
f 101//101 99//99 145//145
f 145//145 99//99 146//146
f 99//99 97//97 146//146
f 146//146 97//97 136//136
f 97//97 95//95 136//136
f 136//136 95//95 93//93
f 139//139 147//147 103//103
f 147//147 148//148 103//103
f 103//103 148//148 105//105
f 148//148 149//149 105//105
f 105//105 149//149 107//107
f 149//149 150//150 107//107
f 107//107 150//150 109//109
f 150//150 151//151 109//109
f 109//109 151//151 140//140
f 131//131 129//129 137//137
f 129//129 127//127 137//137
f 137//137 127//127 152//152
f 127//127 125//125 152//152
f 152//152 125//125 153//153
f 125//125 123//123 153//153
f 153//153 123//123 154//154
f 123//123 121//121 154//154
f 154//154 121//121 155//155
f 121//121 119//119 155//155
f 155//155 119//119 156//156
f 119//119 144//144 156//156
f 72//72 2//2 135//135
f 2//2 46//46 135//135
f 69//69 134//134 157//157
f 69//69 157//157 71//71
f 104//104 106//106 25//25
f 88//88 90//90 3//3
f 76//76 3//3 74//74
f 3//3 4//4 74//74
f 76//76 78//78 3//3
f 78//78 80//80 3//3
f 3//3 80//80 82//82
f 82//82 84//84 3//3
f 84//84 86//86 3//3
f 3//3 86//86 88//88
f 90//90 92//92 3//3
f 92//92 94//94 3//3
f 3//3 94//94 39//39
f 94//94 96//96 39//39
f 39//39 96//96 37//37
f 96//96 98//98 37//37
f 5//5 128//128 43//43
f 128//128 130//130 43//43
f 43//43 130//130 157//157
f 130//130 132//132 157//157
f 157//157 132//132 71//71
f 25//25 106//106 23//23
f 106//106 108//108 23//23
f 23//23 108//108 21//21
f 108//108 110//110 21//21
f 21//21 110//110 19//19
f 110//110 112//112 19//19
f 19//19 112//112 17//17
f 112//112 114//114 17//17
f 17//17 114//114 15//15
f 114//114 116//116 15//15
f 15//15 116//116 13//13
f 116//116 118//118 13//13
f 13//13 118//118 11//11
f 118//118 120//120 11//11
f 11//11 120//120 9//9
f 120//120 122//122 9//9
f 9//9 122//122 7//7
f 122//122 124//124 7//7
f 7//7 124//124 5//5
f 124//124 126//126 5//5
f 5//5 126//126 128//128
f 25//25 27//27 104//104
f 27//27 29//29 104//104
f 104//104 29//29 102//102
f 29//29 31//31 102//102
f 102//102 31//31 100//100
f 31//31 33//33 100//100
f 100//100 33//33 98//98
f 33//33 35//35 98//98
f 98//98 35//35 37//37
f 136//136 135//135 48//48
f 135//135 46//46 48//48
f 47//47 41//41 137//137
f 47//47 137//137 54//54
f 137//137 152//152 54//54
f 152//152 153//153 54//54
f 54//54 153//153 55//55
f 153//153 154//154 55//55
f 55//55 154//154 56//56
f 154//154 155//155 56//56
f 56//56 155//155 57//57
f 155//155 156//156 57//57
f 57//57 156//156 58//58
f 156//156 144//144 58//58
f 58//58 144//144 63//63
f 144//144 143//143 63//63
f 63//63 143//143 64//64
f 143//143 142//142 64//64
f 64//64 142//142 65//65
f 142//142 141//141 65//65
f 65//65 141//141 66//66
f 141//141 140//140 66//66
f 66//66 140//140 67//67
f 140//140 151//151 67//67
f 67//67 151//151 59//59
f 151//151 150//150 59//59
f 59//59 150//150 60//60
f 150//150 149//149 60//60
f 60//60 149//149 61//61
f 149//149 148//148 61//61
f 61//61 148//148 62//62
f 148//148 147//147 62//62
f 62//62 147//147 50//50
f 147//147 139//139 50//50
f 50//50 139//139 51//51
f 139//139 145//145 51//51
f 51//51 145//145 52//52
f 145//145 146//146 52//52
f 52//52 146//146 53//53
f 53//53 146//146 49//49
f 146//146 136//136 49//49
f 49//49 136//136 48//48
f 43//43 157//157 41//41
f 157//157 138//138 41//41
f 41//41 138//138 137//137
f 138//138 157//157 133//133
f 157//157 134//134 133//133
# 310 faces, 0 coords texture

# End of File
