####
#
# OBJ File Generated by Meshlab
#
####
# Object simple-15.obj
#
# Vertices: 120
# Faces: 236
#
####
vn 0.008368 -5.230445 -2.330653
v 22.600000 -28.399988 -10.337070
vn 2.213990 -5.230458 0.728172
v 23.836372 -28.399986 -8.635348
vn 1.880622 -5.230449 1.376693
v 23.651722 -28.399986 -8.272949
vn 1.363149 -5.230455 1.890456
v 23.364120 -28.399986 -7.985348
vn -2.213993 -5.230457 -0.728174
v 21.363626 -28.399986 -9.438792
vn -1.880625 -5.230451 -1.376697
v 21.548277 -28.399986 -9.801190
vn -1.890459 -5.230453 1.363149
v 21.548277 -28.399986 -8.272949
vn -2.219164 -5.230461 0.712244
v 21.363626 -28.399986 -8.635348
vn 0.712249 -5.230452 2.219168
v 23.001722 -28.399986 -7.800696
vn 2.330653 -5.230453 0.008368
v 23.900000 -28.399986 -9.037070
vn 1.376693 -5.230456 -1.880612
v 23.364120 -28.399986 -10.088792
vn 1.890456 -5.230453 -1.363147
v 23.651722 -28.399986 -9.801190
vn 0.728191 -5.230455 -2.214003
v 23.001722 -28.399986 -10.273443
vn -1.363159 -5.230453 -1.890469
v 21.835878 -28.399986 -10.088792
vn -1.376695 -5.230450 1.880620
v 21.835878 -28.399986 -7.985348
vn -0.008372 -5.230455 2.330649
v 22.600000 -28.399986 -7.737070
vn -0.728171 -5.230454 2.213994
v 22.198278 -28.399986 -7.800696
vn -2.330657 -5.230447 -0.008369
v 21.299999 -28.399986 -9.037070
vn 2.219163 -5.230459 -0.712245
v 23.836372 -28.399986 -9.438792
vn -0.712266 -5.230457 -2.219206
v 22.198278 -28.399986 -10.273443
vn 1.363993 -2.138270 5.093536
v 23.063524 -28.199987 -7.610485
vn 0.546613 -2.153573 5.228554
v 22.675890 -28.199987 -7.538991
vn 2.871234 -2.138269 4.422729
v 23.481678 -28.199987 -7.823545
vn 2.135552 -2.153568 4.803741
v 23.135107 -28.199987 -7.635763
vn 4.097404 -2.138264 3.318989
v 23.813524 -28.199987 -8.155392
vn 3.515483 -2.153571 3.908698
v 23.541945 -28.199987 -7.869705
vn 4.922485 -2.138268 1.890378
v 24.026585 -28.199987 -8.573545
vn 4.551286 -2.153573 2.631050
v 23.856577 -28.199987 -8.217917
vn 5.265702 -2.138260 0.276690
v 24.100000 -28.199987 -9.037070
vn 5.141567 -2.153581 1.095846
v 24.048208 -28.199987 -8.646314
vn 5.093525 -2.138272 -1.363993
v 24.026585 -28.199987 -9.500595
vn 5.228564 -2.153585 -0.546656
v 24.098078 -28.199987 -9.112959
vn 4.422750 -2.138271 -2.871224
v 23.813524 -28.199987 -9.918748
vn 4.803735 -2.153572 -2.135563
v 24.001307 -28.199987 -9.572177
vn 3.319006 -2.138271 -4.097389
v 23.481678 -28.199987 -10.250595
vn 3.908713 -2.153567 -3.515459
v 23.767365 -28.199987 -9.979014
vn 1.890423 -2.138273 -4.922494
v 23.063524 -28.199987 -10.463655
vn 2.631054 -2.153569 -4.551271
v 23.419153 -28.199987 -10.293648
vn 0.276718 -2.138258 -5.265729
v 22.600000 -28.199987 -10.537070
vn 1.095887 -2.153564 -5.141549
v 22.990757 -28.199987 -10.485279
vn -1.363991 -2.138272 -5.093534
v 22.136475 -28.199987 -10.463655
vn -0.546631 -2.153571 -5.228555
v 22.524111 -28.199987 -10.535149
vn -2.871215 -2.138273 -4.422762
v 21.718323 -28.199987 -10.250595
vn -2.135554 -2.153568 -4.803738
v 22.064892 -28.199987 -10.438376
vn -4.097396 -2.138268 -3.319006
v 21.386475 -28.199987 -9.918748
vn -3.515450 -2.153561 -3.908717
v 21.658054 -28.199987 -10.204434
vn -4.922488 -2.138269 -1.890385
v 21.173414 -28.199987 -9.500595
vn -4.551272 -2.153569 -2.631061
v 21.343422 -28.199987 -9.856223
vn -5.265738 -2.138266 -0.276746
v 21.100000 -28.199987 -9.037070
vn -5.141564 -2.153574 -1.095844
v 21.151791 -28.199987 -9.427827
vn -5.093523 -2.138273 1.363993
v 21.173414 -28.199987 -8.573545
vn -5.228549 -2.153569 0.546592
v 21.101921 -28.199987 -8.961181
vn -4.422750 -2.138271 2.871224
v 21.386475 -28.199987 -8.155392
vn -4.803734 -2.153573 2.135562
v 21.198692 -28.199987 -8.501963
vn -3.319009 -2.138267 4.097408
v 21.718323 -28.199987 -7.823545
vn -3.908709 -2.153563 3.515464
v 21.432634 -28.199987 -8.095125
vn -1.890391 -2.138268 4.922491
v 22.136475 -28.199987 -7.610485
vn -2.631054 -2.153568 4.551268
v 21.780848 -28.199987 -7.780492
vn -0.276735 -2.138269 5.265718
v 22.600000 -28.199987 -7.537070
vn -1.095854 -2.153573 5.141563
v 22.209244 -28.199987 -7.588861
vn 5.228557 2.153584 -0.546656
v 24.098078 -12.599987 -9.112959
vn 5.265710 2.138260 0.276690
v 24.100000 -12.599987 -9.037070
vn 5.141572 2.153581 1.095847
v 24.048208 -12.599987 -8.646314
vn 4.803740 2.153572 -2.135565
v 24.001307 -12.599987 -9.572177
vn 5.093520 2.138272 -1.363992
v 24.026585 -12.599987 -9.500595
vn 3.908717 2.153566 -3.515462
v 23.767365 -12.599987 -9.979014
vn 4.422747 2.138271 -2.871221
v 23.813524 -12.599987 -9.918748
vn 2.631050 2.153569 -4.551265
v 23.419153 -12.599987 -10.293648
vn 3.319010 2.138271 -4.097396
v 23.481678 -12.599987 -10.250595
vn 1.095885 2.153567 -5.141551
v 22.990757 -12.599987 -10.485279
vn 1.890421 2.138272 -4.922490
v 23.063524 -12.599987 -10.463655
vn -0.546627 2.153578 -5.228556
v 22.524111 -12.599987 -10.535149
vn 0.276718 2.138268 -5.265711
v 22.600000 -12.599987 -10.537070
vn -2.135556 2.153568 -4.803741
v 22.064892 -12.599987 -10.438376
vn -1.363990 2.138272 -5.093529
v 22.136475 -12.599987 -10.463655
vn -3.515453 2.153561 -3.908721
v 21.658054 -12.599987 -10.204434
vn -2.871212 2.138273 -4.422759
v 21.718323 -12.599987 -10.250595
vn -4.551266 2.153569 -2.631057
v 21.343422 -12.599987 -9.856223
vn -4.097403 2.138268 -3.319010
v 21.386475 -12.599987 -9.918748
vn -5.141569 2.153574 -1.095846
v 21.151791 -12.599987 -9.427827
vn -4.922483 2.138269 -1.890384
v 21.173414 -12.599987 -9.500595
vn -5.265730 2.138266 -0.276746
v 21.100000 -12.599987 -9.037070
vn -4.803738 2.153573 2.135564
v 21.198692 -12.599987 -8.501963
vn -5.093519 2.138273 1.363992
v 21.173414 -12.599987 -8.573545
vn -5.228558 2.153568 0.546592
v 21.101921 -12.599987 -8.961181
vn -3.908711 2.153563 3.515466
v 21.432634 -12.599987 -8.095125
vn -4.422747 2.138271 2.871221
v 21.386475 -12.599987 -8.155392
vn -2.631059 2.153568 4.551274
v 21.780848 -12.599987 -7.780492
vn -3.319005 2.138267 4.097402
v 21.718323 -12.599987 -7.823545
vn -1.095857 2.153572 5.141569
v 22.209244 -12.599987 -7.588861
vn -1.890390 2.138268 4.922487
v 22.136475 -12.599987 -7.610485
vn 0.546615 2.153569 5.228550
v 22.675890 -12.599987 -7.538991
vn -0.276735 2.138264 5.265730
v 22.600000 -12.599987 -7.537070
vn 2.135554 2.153568 4.803746
v 23.135107 -12.599987 -7.635763
vn 1.363992 2.138270 5.093532
v 23.063524 -12.599987 -7.610485
vn 3.515486 2.153571 3.908702
v 23.541945 -12.599987 -7.869705
vn 2.871231 2.138269 4.422725
v 23.481678 -12.599987 -7.823545
vn 4.551280 2.153574 2.631045
v 23.856577 -12.599987 -8.217917
vn 4.097410 2.138264 3.318993
v 23.813524 -12.599987 -8.155392
vn 4.922481 2.138268 1.890376
v 24.026585 -12.599987 -8.573545
vn 0.008370 5.230458 -2.330646
v 22.600000 -12.399988 -10.337070
vn 0.728173 5.230453 -2.213991
v 23.001722 -12.399988 -10.273443
vn 1.376693 5.230455 -1.880612
v 23.364120 -12.399988 -10.088792
vn 1.890456 5.230453 -1.363147
v 23.651722 -12.399988 -9.801190
vn 2.219163 5.230459 -0.712245
v 23.836372 -12.399988 -9.438792
vn 2.330649 5.230452 0.008368
v 23.900000 -12.399988 -9.037070
vn 2.213988 5.230459 0.728171
v 23.836372 -12.399988 -8.635348
vn 1.880619 5.230449 1.376691
v 23.651722 -12.399988 -8.272949
vn 1.363148 5.230456 1.890454
v 23.364120 -12.399988 -7.985348
vn 0.712256 5.230453 2.219171
v 23.001722 -12.399988 -7.800696
vn -0.008372 5.230449 2.330645
v 22.600000 -12.399987 -7.737070
vn -0.728175 5.230455 2.213991
v 22.198278 -12.399988 -7.800696
vn -1.376694 5.230450 1.880618
v 21.835878 -12.399988 -7.985348
vn -1.890457 5.230453 1.363147
v 21.548277 -12.399988 -8.272949
vn -2.219161 5.230460 0.712242
v 21.363626 -12.399988 -8.635348
vn -2.330653 5.230448 -0.008370
v 21.299999 -12.399988 -9.037070
vn -2.213988 5.230457 -0.728172
v 21.363626 -12.399988 -9.438792
vn -1.880617 5.230451 -1.376692
v 21.548277 -12.399988 -9.801190
vn -1.363148 5.230453 -1.890457
v 21.835878 -12.399988 -10.088792
vn -0.712244 5.230456 -2.219165
v 22.198278 -12.399988 -10.273443
# 120 vertices, 0 vertices normals

f 1//1 2//2 3//3
f 3//3 4//4 1//1
f 1//1 5//5 6//6
f 1//1 7//7 8//8
f 4//4 9//9 1//1
f 10//10 11//11 12//12
f 10//10 1//1 13//13
f 6//6 14//14 1//1
f 1//1 15//15 7//7
f 1//1 16//16 17//17
f 1//1 10//10 2//2
f 13//13 11//11 10//10
f 1//1 18//18 5//5
f 17//17 15//15 1//1
f 12//12 19//19 10//10
f 8//8 18//18 1//1
f 14//14 20//20 1//1
f 9//9 16//16 1//1
f 9//9 21//21 22//22
f 22//22 16//16 9//9
f 4//4 23//23 24//24
f 24//24 9//9 4//4
f 3//3 25//25 26//26
f 26//26 4//4 3//3
f 2//2 27//27 28//28
f 28//28 3//3 2//2
f 10//10 29//29 30//30
f 30//30 2//2 10//10
f 19//19 31//31 32//32
f 32//32 10//10 19//19
f 12//12 33//33 34//34
f 34//34 19//19 12//12
f 11//11 35//35 36//36
f 36//36 12//12 11//11
f 13//13 37//37 38//38
f 38//38 11//11 13//13
f 1//1 39//39 40//40
f 40//40 13//13 1//1
f 20//20 41//41 42//42
f 42//42 1//1 20//20
f 14//14 43//43 44//44
f 44//44 20//20 14//14
f 6//6 45//45 46//46
f 46//46 14//14 6//6
f 5//5 47//47 48//48
f 48//48 6//6 5//5
f 18//18 49//49 50//50
f 50//50 5//5 18//18
f 8//8 51//51 52//52
f 52//52 18//18 8//8
f 7//7 53//53 54//54
f 54//54 8//8 7//7
f 15//15 55//55 56//56
f 56//56 7//7 15//15
f 17//17 57//57 58//58
f 58//58 15//15 17//17
f 16//16 59//59 60//60
f 60//60 17//17 16//16
f 60//60 57//57 17//17
f 58//58 55//55 15//15
f 56//56 53//53 7//7
f 54//54 51//51 8//8
f 52//52 49//49 18//18
f 50//50 47//47 5//5
f 48//48 45//45 6//6
f 46//46 43//43 14//14
f 44//44 41//41 20//20
f 42//42 39//39 1//1
f 40//40 37//37 13//13
f 38//38 35//35 11//11
f 36//36 33//33 12//12
f 34//34 31//31 19//19
f 32//32 29//29 10//10
f 30//30 27//27 2//2
f 28//28 25//25 3//3
f 26//26 23//23 4//4
f 24//24 21//21 9//9
f 22//22 59//59 16//16
f 61//61 62//62 29//29
f 30//30 29//29 62//62
f 62//62 63//63 30//30
f 64//64 65//65 31//31
f 32//32 31//31 65//65
f 65//65 61//61 32//32
f 66//66 67//67 33//33
f 34//34 33//33 67//67
f 67//67 64//64 34//34
f 68//68 69//69 35//35
f 36//36 35//35 69//69
f 69//69 66//66 36//36
f 70//70 71//71 37//37
f 38//38 37//37 71//71
f 71//71 68//68 38//38
f 42//42 72//72 73//73
f 40//40 39//39 73//73
f 73//73 70//70 40//40
f 74//74 75//75 41//41
f 42//42 41//41 75//75
f 75//75 72//72 42//42
f 43//43 46//46 76//76
f 74//74 44//44 43//43
f 43//43 77//77 74//74
f 78//78 79//79 45//45
f 79//79 76//76 46//46
f 46//46 45//45 79//79
f 80//80 81//81 47//47
f 48//48 47//47 81//81
f 81//81 78//78 48//48
f 82//82 49//49 52//52
f 50//50 49//49 82//82
f 82//82 80//80 50//50
f 83//83 84//84 51//51
f 51//51 84//84 85//85
f 85//85 52//52 51//51
f 86//86 87//87 53//53
f 54//54 53//53 87//87
f 87//87 83//83 54//54
f 58//58 88//88 89//89
f 86//86 56//56 55//55
f 55//55 89//89 86//86
f 90//90 91//91 57//57
f 58//58 57//57 91//91
f 91//91 88//88 58//58
f 92//92 93//93 59//59
f 60//60 59//59 93//93
f 93//93 90//90 60//60
f 94//94 95//95 21//21
f 22//22 21//21 95//95
f 95//95 92//92 22//22
f 96//96 97//97 23//23
f 24//24 23//23 97//97
f 97//97 94//94 24//24
f 98//98 99//99 25//25
f 26//26 25//25 99//99
f 99//99 96//96 26//26
f 63//63 100//100 27//27
f 28//28 27//27 100//100
f 100//100 98//98 28//28
f 27//27 30//30 63//63
f 25//25 28//28 98//98
f 23//23 26//26 96//96
f 21//21 24//24 94//94
f 59//59 22//22 92//92
f 57//57 60//60 90//90
f 89//89 55//55 58//58
f 53//53 56//56 86//86
f 51//51 54//54 83//83
f 52//52 85//85 82//82
f 47//47 50//50 80//80
f 45//45 48//48 78//78
f 76//76 77//77 43//43
f 41//41 44//44 74//74
f 73//73 39//39 42//42
f 37//37 40//40 70//70
f 35//35 38//38 68//68
f 33//33 36//36 66//66
f 31//31 34//34 64//64
f 29//29 32//32 61//61
f 101//101 102//102 70//70
f 102//102 71//71 70//70
f 102//102 103//103 68//68
f 103//103 69//69 68//68
f 103//103 104//104 66//66
f 104//104 67//67 66//66
f 104//104 105//105 64//64
f 105//105 65//65 64//64
f 105//105 106//106 61//61
f 106//106 62//62 61//61
f 106//106 107//107 63//63
f 107//107 100//100 63//63
f 107//107 108//108 98//98
f 108//108 99//99 98//98
f 108//108 109//109 96//96
f 109//109 97//97 96//96
f 109//109 110//110 94//94
f 110//110 95//95 94//94
f 110//110 111//111 92//92
f 111//111 93//93 92//92
f 111//111 112//112 90//90
f 112//112 91//91 90//90
f 112//112 113//113 88//88
f 113//113 89//89 88//88
f 113//113 114//114 86//86
f 114//114 87//87 86//86
f 114//114 115//115 83//83
f 115//115 84//84 83//83
f 115//115 116//116 85//85
f 116//116 82//82 85//85
f 116//116 117//117 80//80
f 117//117 81//81 80//80
f 117//117 118//118 78//78
f 118//118 79//79 78//78
f 118//118 119//119 76//76
f 119//119 77//77 76//76
f 119//119 120//120 74//74
f 120//120 75//75 74//74
f 120//120 101//101 72//72
f 101//101 73//73 72//72
f 72//72 75//75 120//120
f 74//74 77//77 119//119
f 76//76 79//79 118//118
f 78//78 81//81 117//117
f 80//80 82//82 116//116
f 85//85 84//84 115//115
f 83//83 87//87 114//114
f 86//86 89//89 113//113
f 88//88 91//91 112//112
f 90//90 93//93 111//111
f 92//92 95//95 110//110
f 94//94 97//97 109//109
f 96//96 99//99 108//108
f 98//98 100//100 107//107
f 63//63 62//62 106//106
f 61//61 65//65 105//105
f 64//64 67//67 104//104
f 66//66 69//69 103//103
f 68//68 71//71 102//102
f 70//70 73//73 101//101
f 117//117 120//120 119//119
f 117//117 102//102 101//101
f 101//101 120//120 117//117
f 105//105 112//112 111//111
f 117//117 103//103 102//102
f 117//117 105//105 104//104
f 110//110 107//107 106//106
f 107//107 110//110 109//109
f 105//105 113//113 112//112
f 105//105 115//115 114//114
f 105//105 117//117 116//116
f 104//104 103//103 117//117
f 109//109 108//108 107//107
f 114//114 113//113 105//105
f 119//119 118//118 117//117
f 111//111 110//110 105//105
f 106//106 105//105 110//110
f 116//116 115//115 105//105
# 236 faces, 0 coords texture

# End of File
